<svg width="27" height="22" viewBox="0 0 27 22" fill="none" xmlns="http://www.w3.org/2000/svg">
<path d="M5.0708 0.277C3.94709 0.277 2.86941 0.716716 2.07483 1.49942C1.28025 2.28212 0.833862 3.34368 0.833862 4.45059V4.87003L13.5447 11.6125L26.2555 4.87212V4.45059C26.2555 3.34368 25.8091 2.28212 25.0145 1.49942C24.2199 0.716716 23.1422 0.277 22.0185 0.277H5.0708Z" fill="#969696"/>
<path d="M26.2555 7.24063L14.0467 13.716C13.8924 13.7978 13.7199 13.8406 13.5447 13.8406C13.3694 13.8406 13.1969 13.7978 13.0426 13.716L0.833862 7.24063V16.9714C0.833862 18.0783 1.28025 19.1398 2.07483 19.9225C2.86941 20.7052 3.94709 21.1449 5.0708 21.1449H22.0185C23.1422 21.1449 24.2199 20.7052 25.0145 19.9225C25.8091 19.1398 26.2555 18.0783 26.2555 16.9714V7.24063Z" fill="#969696"/>
</svg>
