<svg width="22" height="28" viewBox="0 0 22 28" fill="none" xmlns="http://www.w3.org/2000/svg">
<path d="M11.2394 0.730896C7.54037 0.730896 4.53095 3.72653 4.53095 7.40864V11.4153H3.18925C2.47757 11.4153 1.79504 11.6967 1.29181 12.1976C0.788573 12.6986 0.505859 13.378 0.505859 14.0864V24.7708C0.505859 25.4792 0.788573 26.1586 1.29181 26.6595C1.79504 27.1604 2.47757 27.4419 3.18925 27.4419H19.2896C20.0013 27.4419 20.6838 27.1604 21.187 26.6595C21.6903 26.1586 21.973 25.4792 21.973 24.7708V14.0864C21.973 13.378 21.6903 12.6986 21.187 12.1976C20.6838 11.6967 20.0013 11.4153 19.2896 11.4153H17.9479V7.40864C17.9479 3.72653 14.9385 0.730896 11.2394 0.730896ZM7.21434 7.40864C7.21434 5.19964 9.02026 3.40199 11.2394 3.40199C13.4586 3.40199 15.2645 5.19964 15.2645 7.40864V11.4153H7.21434V7.40864ZM12.5811 21.7297V24.7708H9.89773V21.7297C9.42865 21.4623 9.052 21.0597 8.81743 20.5749C8.58287 20.0902 8.5014 19.546 8.58378 19.0142C8.66616 18.4825 8.90852 17.988 9.27889 17.5961C9.64926 17.2042 10.1303 16.9332 10.6585 16.8189C11.0508 16.7326 11.4576 16.735 11.8489 16.826C12.2402 16.917 12.6059 17.0942 12.9192 17.3447C13.2325 17.5951 13.4853 17.9124 13.659 18.2731C13.8327 18.6337 13.9229 19.0286 13.9228 19.4286C13.922 19.8957 13.7976 20.3543 13.5621 20.7583C13.3265 21.1623 12.9882 21.4973 12.5811 21.7297Z" fill="#969696"/>
</svg>
