<svg width="187" height="35" viewBox="0 0 187 35" fill="none" xmlns="http://www.w3.org/2000/svg">
<path d="M1.128 23.592V20.952L8.976 9.72H12.888V20.664H15V23.592H12.888V27H9.528V23.592H1.128ZM9.744 13.32L4.824 20.664H9.744V13.32ZM19.0112 27.168C18.4032 27.168 17.8992 26.984 17.4992 26.616C17.1152 26.232 16.9232 25.76 16.9232 25.2C16.9232 24.64 17.1152 24.176 17.4992 23.808C17.8992 23.424 18.4032 23.232 19.0112 23.232C19.6032 23.232 20.0912 23.424 20.4752 23.808C20.8592 24.176 21.0512 24.64 21.0512 25.2C21.0512 25.76 20.8592 26.232 20.4752 26.616C20.0912 26.984 19.6032 27.168 19.0112 27.168ZM34.5096 12.048L28.1256 27H24.7176L31.1496 12.432H22.9416V9.552H34.5096V12.048Z" fill="#FFC700"/>
<g clip-path="url(#clip0_751_205)">
<path d="M56.3038 11.175L48.3288 12.3312L48.1876 12.36C47.9737 12.4168 47.7788 12.5293 47.6227 12.686C47.4666 12.8427 47.3548 13.0381 47.2989 13.2522C47.243 13.4662 47.2449 13.6913 47.3044 13.9043C47.3639 14.1174 47.4788 14.3109 47.6376 14.465L53.4151 20.0887L52.0526 28.0325L52.0363 28.17C52.0232 28.3911 52.0692 28.6118 52.1694 28.8094C52.2696 29.0069 52.4206 29.1743 52.6067 29.2944C52.7929 29.4144 53.0077 29.4829 53.229 29.4926C53.4503 29.5024 53.6703 29.4532 53.8663 29.35L60.9988 25.6L68.1151 29.35L68.2401 29.4075C68.4464 29.4888 68.6706 29.5137 68.8898 29.4797C69.1089 29.4457 69.315 29.354 69.4871 29.2141C69.6591 29.0741 69.7908 28.8909 69.8686 28.6833C69.9465 28.4756 69.9677 28.251 69.9301 28.0325L68.5663 20.0887L74.3463 14.4637L74.4438 14.3575C74.5831 14.186 74.6744 13.9806 74.7085 13.7622C74.7425 13.5439 74.7181 13.3205 74.6377 13.1147C74.5573 12.9088 74.4237 12.728 74.2507 12.5906C74.0776 12.4532 73.8713 12.3642 73.6526 12.3325L65.6776 11.175L62.1126 3.94999C62.0094 3.74066 61.8497 3.56439 61.6516 3.44113C61.4534 3.31786 61.2247 3.25253 60.9913 3.25253C60.758 3.25253 60.5292 3.31786 60.3311 3.44113C60.1329 3.56439 59.9732 3.74066 59.8701 3.94999L56.3038 11.175Z" fill="#FFC700"/>
</g>
<g clip-path="url(#clip1_751_205)">
<path d="M93.3038 11.175L85.3288 12.3312L85.1876 12.36C84.9737 12.4168 84.7788 12.5293 84.6227 12.686C84.4666 12.8427 84.3548 13.0381 84.2989 13.2522C84.243 13.4662 84.2449 13.6913 84.3044 13.9043C84.3639 14.1174 84.4788 14.3109 84.6376 14.465L90.4151 20.0887L89.0526 28.0325L89.0363 28.17C89.0232 28.3911 89.0692 28.6118 89.1694 28.8094C89.2696 29.0069 89.4206 29.1743 89.6067 29.2944C89.7929 29.4144 90.0077 29.4829 90.229 29.4926C90.4503 29.5024 90.6703 29.4532 90.8663 29.35L97.9988 25.6L105.115 29.35L105.24 29.4075C105.446 29.4888 105.671 29.5137 105.89 29.4797C106.109 29.4457 106.315 29.354 106.487 29.2141C106.659 29.0741 106.791 28.8909 106.869 28.6833C106.946 28.4756 106.968 28.251 106.93 28.0325L105.566 20.0887L111.346 14.4637L111.444 14.3575C111.583 14.186 111.674 13.9806 111.708 13.7622C111.743 13.5439 111.718 13.3205 111.638 13.1147C111.557 12.9088 111.424 12.728 111.251 12.5906C111.078 12.4532 110.871 12.3642 110.653 12.3325L102.678 11.175L99.1126 3.94999C99.0094 3.74066 98.8497 3.56439 98.6516 3.44113C98.4534 3.31786 98.2247 3.25253 97.9913 3.25253C97.758 3.25253 97.5292 3.31786 97.3311 3.44113C97.1329 3.56439 96.9732 3.74066 96.8701 3.94999L93.3038 11.175Z" fill="#FFC700"/>
</g>
<g clip-path="url(#clip2_751_205)">
<path d="M130.304 11.175L122.329 12.3312L122.188 12.36C121.974 12.4168 121.779 12.5293 121.623 12.686C121.467 12.8427 121.355 13.0381 121.299 13.2522C121.243 13.4662 121.245 13.6913 121.304 13.9043C121.364 14.1174 121.479 14.3109 121.638 14.465L127.415 20.0887L126.053 28.0325L126.036 28.17C126.023 28.3911 126.069 28.6118 126.169 28.8094C126.27 29.0069 126.421 29.1743 126.607 29.2944C126.793 29.4144 127.008 29.4829 127.229 29.4926C127.45 29.5024 127.67 29.4532 127.866 29.35L134.999 25.6L142.115 29.35L142.24 29.4075C142.446 29.4888 142.671 29.5137 142.89 29.4797C143.109 29.4457 143.315 29.354 143.487 29.2141C143.659 29.0741 143.791 28.8909 143.869 28.6833C143.946 28.4756 143.968 28.251 143.93 28.0325L142.566 20.0887L148.346 14.4637L148.444 14.3575C148.583 14.186 148.674 13.9806 148.708 13.7622C148.743 13.5439 148.718 13.3205 148.638 13.1147C148.557 12.9088 148.424 12.728 148.251 12.5906C148.078 12.4532 147.871 12.3642 147.653 12.3325L139.678 11.175L136.113 3.94999C136.009 3.74066 135.85 3.56439 135.652 3.44113C135.453 3.31786 135.225 3.25253 134.991 3.25253C134.758 3.25253 134.529 3.31786 134.331 3.44113C134.133 3.56439 133.973 3.74066 133.87 3.94999L130.304 11.175Z" fill="#FFC700"/>
</g>
<g clip-path="url(#clip3_751_205)">
<path d="M167.304 11.175L159.329 12.3312L159.188 12.36C158.974 12.4168 158.779 12.5293 158.623 12.686C158.467 12.8427 158.355 13.0381 158.299 13.2522C158.243 13.4662 158.245 13.6913 158.304 13.9043C158.364 14.1174 158.479 14.3109 158.638 14.465L164.415 20.0887L163.053 28.0325L163.036 28.17C163.023 28.3911 163.069 28.6118 163.169 28.8094C163.27 29.0069 163.421 29.1743 163.607 29.2944C163.793 29.4144 164.008 29.4829 164.229 29.4926C164.45 29.5024 164.67 29.4532 164.866 29.35L171.999 25.6L179.115 29.35L179.24 29.4075C179.446 29.4888 179.671 29.5137 179.89 29.4797C180.109 29.4457 180.315 29.354 180.487 29.2141C180.659 29.0741 180.791 28.8909 180.869 28.6833C180.946 28.4756 180.968 28.251 180.93 28.0325L179.566 20.0887L185.346 14.4637L185.444 14.3575C185.583 14.186 185.674 13.9806 185.708 13.7622C185.743 13.5439 185.718 13.3205 185.638 13.1147C185.557 12.9088 185.424 12.728 185.251 12.5906C185.078 12.4532 184.871 12.3642 184.653 12.3325L176.678 11.175L173.113 3.94999C173.009 3.74066 172.85 3.56439 172.652 3.44113C172.453 3.31786 172.225 3.25253 171.991 3.25253C171.758 3.25253 171.529 3.31786 171.331 3.44113C171.133 3.56439 170.973 3.74066 170.87 3.94999L167.304 11.175Z" fill="#FFC700"/>
</g>
<defs>
<clipPath id="clip0_751_205">
<rect width="30" height="30" fill="white" transform="translate(46 2)"/>
</clipPath>
<clipPath id="clip1_751_205">
<rect width="30" height="30" fill="white" transform="translate(83 2)"/>
</clipPath>
<clipPath id="clip2_751_205">
<rect width="30" height="30" fill="white" transform="translate(120 2)"/>
</clipPath>
<clipPath id="clip3_751_205">
<rect width="30" height="30" fill="white" transform="translate(157 2)"/>
</clipPath>
</defs>
</svg>
